<?xml version="1.0" encoding="UTF-8"?>
<!-- Do not edit this file with editors other than diagrams.net -->
<!DOCTYPE svg PUBLIC "-//W3C//DTD SVG 1.1//EN" "http://www.w3.org/Graphics/SVG/1.1/DTD/svg11.dtd">
<svg xmlns="http://www.w3.org/2000/svg" xmlns:xlink="http://www.w3.org/1999/xlink" version="1.1" width="321px" height="322px" viewBox="-0.5 -0.5 321 322" content="&lt;mxfile host=&quot;app.diagrams.net&quot; modified=&quot;2023-01-30T16:13:07.726Z&quot; agent=&quot;5.0 (Windows NT 10.0; Win64; x64) AppleWebKit/537.36 (KHTML, like Gecko) Chrome/109.0.0.0 Safari/537.36&quot; etag=&quot;OdfmOQYZzv1qulSWNnyW&quot; version=&quot;20.8.13&quot;&gt;&lt;diagram id=&quot;TKRXFkal2oPzithZlqY_&quot; name=&quot;Page-1&quot;&gt;tZXbjpswEIafJpeRTJzjZZM9VGqz2yqqeu3gAVsxGBmzkDx9DTanhXSzVcoF8vwztuH/BjzBu6h4ViRhe0lBTGaIFhP8MJnNlt7C3EvhbIU5ckKoOLWS1woHfgEnIqdmnELaK9RSCs2TvujLOAZf9zSilMz7ZYEU/V0TEsJAOPhEDNXfnGpm1fUCtfpX4CGrd/aQyxyJfwqVzGK3XyxjsJmI1Mu40pQRKvOOhB8neKek1HYUFTsQpau1Y3be05Vs88gKYn3LBMReljlPvj9dXi5qlQV8/yWZzuwqb0Rkzgr3sPpce6OYjI6ZMXibM67hkBC/zOSmEYzGdCRM5JlhwIXYSSFVNQ978yAA3+iVPUBdVWMDMgFRvmsGrwwFOYLYNpbWi1Wm4u3whZ0Hb6A0FB3JGfAMMgKtzqbEZU1j2ilNn9owb6HjmhfrAG9E4hotbJZuHTcDZ/onAOCPARjHknKYaigdT0BxszcoJ/1o448JFVB/fSPEUHWVjGzJClX0NNFcxibeVDmt5AnGZt2BD37Hx1sNAXljgNb/i8/idj6UaHLQUlX/ms+i+MtHkp5A+6wOrtp/DWYH4HRzL07LRZ/TeshpNYJpfgdM2SVnp1/rDQq2rz+nr9Sj3/a3YDKrmOPkBjQkTewZUzFqDBu4M+LhdcM27xp7OTRsrK//4b9jwvZQqXKdMxs//gE=&lt;/diagram&gt;&lt;/mxfile&gt;"><defs/><g><path d="M 80 80 L 156.46 3.54 Q 160 0 163.54 3.54 L 316.46 156.46 Q 320 160 316.46 163.54 L 163.54 316.46 Q 160 320 156.46 316.46 L 3.54 163.54 Q 0 160 3.54 156.46 Z" fill="#14ffec" stroke="rgb(0, 0, 0)" stroke-miterlimit="10" pointer-events="all"/><path d="M 100 130 L 150 130 L 220 170 L 150 210 L 100 210 L 170 170 Z" fill="#000000" stroke="#000000" stroke-miterlimit="10" transform="rotate(90,160,170)" pointer-events="all"/><path d="M 145 140 L 195 140 Q 155 160 195 180 L 145 180 Q 105 160 145 140 Z" fill="#000000" stroke="#000000" stroke-miterlimit="10" transform="rotate(-90,160,160)" pointer-events="all"/><ellipse cx="160" cy="130" rx="10" ry="10" fill="rgb(255, 255, 255)" stroke="rgb(0, 0, 0)" pointer-events="all"/></g></svg>